<?xml version="1.0" encoding="UTF-8"?>
<svg version="1.1" xmlns="http://www.w3.org/2000/svg" width="90" height="90">
<path d="M0 0 C10.61023949 -0.17268021 10.61023949 -0.17268021 15.125 0.5625 C16.548125 0.7790625 16.548125 0.7790625 18 1 C18.33 0.67 18.66 0.34 19 0 C22.23900162 -0.36153347 25.4935524 -0.37155239 28.75 -0.4375 C29.6575 -0.48326172 30.565 -0.52902344 31.5 -0.57617188 C38.04467708 -0.68620665 38.04467708 -0.68620665 40.75585938 1.26123047 C43.04466862 3.87044073 44 5.50231381 44 9 C34.1 9.495 34.1 9.495 24 10 C24.66 11.32 25.32 12.64 26 14 C28.66482841 14.46709352 30.95070966 14.69572473 33.625 14.75 C34.33140625 14.77964844 35.0378125 14.80929688 35.765625 14.83984375 C37.50980047 14.91055357 39.25490827 14.95754035 41 15 C40.91195873 16.5634915 40.80376854 18.12585389 40.6875 19.6875 C40.60048828 20.99267578 40.60048828 20.99267578 40.51171875 22.32421875 C39.85896066 25.73749577 39.43593161 27.45499683 37 30 C33.59049172 30.63022697 30.26452271 30.46821234 26.8125 30.3125 C25.40194336 30.27866211 25.40194336 30.27866211 23.96289062 30.24414062 C21.64032527 30.18519227 19.32096224 30.10297785 17 30 C16.88398438 30.76957031 16.76796875 31.53914063 16.6484375 32.33203125 C15.50640248 37.03088619 11.88233157 39.41177895 8 42 C2.44601777 42.68923878 -2.47110145 42.7242151 -7.5625 40.3125 C-10.8320199 37.21064779 -12.75850523 34.61649202 -13.43359375 30.09765625 C-13.44150672 23.94928199 -13.4465054 19.68685704 -9 15 C-5.05062318 11.79780258 -1.99834992 11.70597942 3 12 C3 11.01 3 10.02 3 9 C-1.29 9 -5.58 9 -10 9 C-11 5 -11 5 -10 3 C-7.03 3 -4.06 3 -1 3 C-0.67 2.01 -0.34 1.02 0 0 Z M11 9 C10.14025199 11.29294488 10.14025199 11.29294488 10 14 C11.83358335 16.33454661 11.83358335 16.33454661 14 18 C12.02 18 10.04 18 8 18 C7.67 19.98 7.34 21.96 7 24 C12.28 24 17.56 24 23 24 C22.05125 22.081875 21.1025 20.16375 20.125 18.1875 C19.59132813 17.10855469 19.05765625 16.02960937 18.5078125 14.91796875 C17.02778861 11.92161735 17.02778861 11.92161735 15 9 C13.68 9 12.36 9 11 9 Z M-4.125 20.5 C-6.4165628 23.55541707 -6.59815896 25.35583747 -6.375 29.09375 C-6.07280069 31.19912072 -6.07280069 31.19912072 -4.5 33.5 C-1.00568948 35.59658631 2.0277143 35.9849315 6 35 C8.5404226 32.66169042 8.5404226 32.66169042 10 30 C6.37 30 2.74 30 -1 30 C-0.67 26.37 -0.34 22.74 0 19 C-2.16119096 18.80777227 -2.16119096 18.80777227 -4.125 20.5 Z " fill="#000000" transform="translate(13,30)"/>
<path d="M0 0 C2.26979665 -0.10794277 4.54105196 -0.18556176 6.8125 -0.25 C8.07707031 -0.29640625 9.34164062 -0.3428125 10.64453125 -0.390625 C14 0 14 0 15.94921875 1.890625 C17 4 17 4 17 6 C19.31 6 21.62 6 24 6 C24 8.97 24 11.94 24 15 C23.34 15 22.68 15 22 15 C23.29035593 18.93590978 24.67489163 22.55539501 27 26 C29.40439447 26.9193273 31.2236799 26.93927887 33.78515625 26.91796875 C37.3629139 27.05047829 39.35067852 28.72915302 42 31 C45.9077002 36.41855325 45.78849266 41.53436018 45 48 C42.81356301 52.61581142 40.50400196 54.72864085 36 57 C30.45191396 57.82885269 25.52859117 57.7240695 20.4375 55.3125 C17.1679801 52.21064779 15.24149477 49.61649202 14.56640625 45.09765625 C14.55553109 36.6476547 14.55553109 36.6476547 17.1875 32.8125 C19.22820767 30.28753337 19.22820767 30.28753337 18.80859375 28.1015625 C16.90920091 22.08862745 13.93335947 16.39421497 11.20703125 10.72265625 C10 8 10 8 10 6 C6.7 6 3.4 6 0 6 C-1 2 -1 2 0 0 Z M31 34 C31.66 37.63 32.32 41.26 33 45 C31.02 45 29.04 45 27 45 C26.71125 44.05125 26.4225 43.1025 26.125 42.125 C25.23174891 38.94788422 25.23174891 38.94788422 23 37 C21.56844101 38.21589984 21.56844101 38.21589984 21.6875 41.8125 C21.74622611 44.78617685 21.92650688 45.87751147 23.5 48.5 C27.03588973 50.62153384 29.97901723 50.791013 34 50 C36.66666667 48.66666667 36.66666667 48.66666667 38 46 C38.5474451 43.2171541 38.57532907 40.77980778 38 38 C36.35246985 35.4331496 36.35246985 35.4331496 34 34 C33.01 34 32.02 34 31 34 Z " fill="#000000" transform="translate(42,15)"/>
</svg>
